<svg width="151" height="280" viewBox="0 0 151 280" fill="none" xmlns="http://www.w3.org/2000/svg">
<path fill-rule="evenodd" clip-rule="evenodd" d="M0 -10H151V181H0V-10Z" fill="#4AF6CD"/>
<path d="M55.464 145.36C55.464 142.2 55.924 139.42 56.844 137.02C57.764 134.58 59.144 132.4 60.984 130.48L66.864 135.46C64.584 138.34 63.444 141.36 63.444 144.52C63.444 146.16 63.764 147.42 64.404 148.3C65.004 149.14 65.864 149.56 66.984 149.56C67.784 149.56 68.444 149.34 68.964 148.9C69.484 148.46 69.984 147.72 70.464 146.68C70.944 145.64 71.544 144 72.264 141.76C73.624 137.48 75.344 134.36 77.424 132.4C79.464 130.4 82.304 129.4 85.944 129.4C88.584 129.4 90.924 130.08 92.964 131.44C94.964 132.8 96.524 134.78 97.644 137.38C98.764 139.94 99.324 142.96 99.324 146.44C99.324 153.08 97.304 158.5 93.264 162.7L87.204 157.24C89.924 153.92 91.284 150.46 91.284 146.86C91.284 144.98 90.884 143.52 90.084 142.48C89.244 141.44 88.144 140.92 86.784 140.92C85.824 140.92 85.044 141.12 84.444 141.52C83.804 141.92 83.244 142.64 82.764 143.68C82.244 144.68 81.684 146.16 81.084 148.12C79.604 152.84 77.824 156.16 75.744 158.08C73.664 160 71.044 160.96 67.884 160.96C65.404 160.96 63.224 160.3 61.344 158.98C59.464 157.62 58.024 155.76 57.024 153.4C55.984 151 55.464 148.32 55.464 145.36ZM84.264 91.9553C87.144 91.9553 89.724 92.5953 92.004 93.8753C94.284 95.1153 96.084 96.9953 97.404 99.5153C98.684 102.035 99.324 105.115 99.324 108.755C99.324 114.275 97.984 118.455 95.304 121.295C92.584 124.135 88.904 125.555 84.264 125.555H56.544V114.455H83.904C86.424 114.455 88.284 114.015 89.484 113.135C90.644 112.215 91.224 110.755 91.224 108.755C91.224 106.755 90.624 105.315 89.424 104.435C88.224 103.555 86.384 103.115 83.904 103.115H56.544V91.9553H84.264ZM82.884 71.9477V75.0077H98.244V86.1077H56.544L56.544 71.6477C56.544 65.7677 57.604 61.3877 59.724 58.5077C61.844 55.5877 65.104 54.1277 69.504 54.1277C72.144 54.1277 74.344 54.7477 76.104 55.9877C77.864 57.1877 79.444 59.1277 80.844 61.8077L98.244 51.4277V63.7877L82.884 71.9477ZM75.324 75.0077V71.2877C75.324 67.4477 73.384 65.5277 69.504 65.5277C67.704 65.5277 66.384 66.0677 65.544 67.1477C64.704 68.1877 64.284 69.7677 64.284 71.8877V75.0077H75.324ZM98.244 48.9006H56.544V23.2806L64.404 24.4206V37.8006H74.424V26.0406H82.284V37.8006H98.244V48.9006Z" fill="white"/>
<path d="M55.464 257.92C55.464 252.36 57.224 247.58 60.744 243.58L66.444 249.04C65.364 250.56 64.584 251.94 64.104 253.18C63.584 254.38 63.324 255.76 63.324 257.32C63.324 260.32 64.484 262.68 66.804 264.4C69.124 266.08 72.664 266.92 77.424 266.92C80.904 266.92 83.664 266.64 85.704 266.08C87.704 265.52 89.144 264.68 90.024 263.56C90.904 262.4 91.344 260.92 91.344 259.12C91.344 257.32 90.964 255.68 90.204 254.2H81.624V258.94L74.004 260.02V243.46H94.764C96.204 245.62 97.324 248.06 98.124 250.78C98.924 253.5 99.324 256.18 99.324 258.82C99.324 271.86 92.004 278.38 77.364 278.38C72.804 278.38 68.884 277.5 65.604 275.74C62.284 273.94 59.764 271.5 58.044 268.42C56.324 265.34 55.464 261.84 55.464 257.92ZM55.464 220.335C55.464 214.295 57.384 209.595 61.224 206.235C65.064 202.875 70.444 201.195 77.364 201.195C81.884 201.195 85.804 201.955 89.124 203.475C92.404 204.955 94.924 207.135 96.684 210.015C98.444 212.895 99.324 216.335 99.324 220.335C99.324 226.375 97.404 231.075 93.564 234.435C89.724 237.755 84.324 239.415 77.364 239.415C72.844 239.415 68.944 238.675 65.664 237.195C62.384 235.675 59.864 233.495 58.104 230.655C56.344 227.775 55.464 224.335 55.464 220.335ZM63.444 220.335C63.444 222.935 64.524 224.855 66.684 226.095C68.844 227.295 72.404 227.895 77.364 227.895C82.324 227.895 85.904 227.275 88.104 226.035C90.264 224.795 91.344 222.895 91.344 220.335C91.344 217.695 90.264 215.775 88.104 214.575C85.944 213.375 82.364 212.775 77.364 212.775C72.404 212.775 68.844 213.375 66.684 214.575C64.524 215.775 63.444 217.695 63.444 220.335Z" fill="white"/>
<rect x="74.6012" y="191" width="20" height="0.89881" transform="rotate(-90 74.6012 191)" fill="white"/>
</svg>
